<mxfile>
    <diagram id="PduTYPPfNWthoLgCok7-" name="Page-1">
        <mxGraphModel dx="864" dy="394" grid="0" gridSize="10" guides="1" tooltips="1" connect="1" arrows="1" fold="1" page="1" pageScale="1" pageWidth="827" pageHeight="1169" math="0" shadow="0">
            <root>
                <mxCell id="0"/>
                <mxCell id="1" parent="0"/>
                <mxCell id="2" value="«interface»&lt;br&gt;&lt;b&gt;Iterator&lt;/b&gt;" style="html=1;" vertex="1" parent="1">
                    <mxGeometry x="140" y="70" width="110" height="50" as="geometry"/>
                </mxCell>
                <mxCell id="3" value="+ nextNumber () ;&lt;br&gt;+ hasNext () ;" style="html=1;" vertex="1" parent="1">
                    <mxGeometry x="140" y="120" width="110" height="50" as="geometry"/>
                </mxCell>
                <mxCell id="4" value="SimpleIterator" style="swimlane;fontStyle=1;align=center;verticalAlign=top;childLayout=stackLayout;horizontal=1;startSize=26;horizontalStack=0;resizeParent=1;resizeParentMax=0;resizeLast=0;collapsible=1;marginBottom=0;" vertex="1" parent="1">
                    <mxGeometry x="115" y="230" width="160" height="130" as="geometry"/>
                </mxCell>
                <mxCell id="5" value="- collection () ;&#10;- position () ;" style="text;strokeColor=none;fillColor=none;align=left;verticalAlign=top;spacingLeft=4;spacingRight=4;overflow=hidden;rotatable=0;points=[[0,0.5],[1,0.5]];portConstraint=eastwest;" vertex="1" parent="4">
                    <mxGeometry y="26" width="160" height="34" as="geometry"/>
                </mxCell>
                <mxCell id="17" value="" style="endArrow=open;endFill=1;endSize=12;html=1;" edge="1" parent="4">
                    <mxGeometry width="160" relative="1" as="geometry">
                        <mxPoint x="165" y="50" as="sourcePoint"/>
                        <mxPoint x="275" y="50" as="targetPoint"/>
                    </mxGeometry>
                </mxCell>
                <mxCell id="6" value="" style="line;strokeWidth=1;fillColor=none;align=left;verticalAlign=middle;spacingTop=-1;spacingLeft=3;spacingRight=3;rotatable=0;labelPosition=right;points=[];portConstraint=eastwest;" vertex="1" parent="4">
                    <mxGeometry y="60" width="160" height="8" as="geometry"/>
                </mxCell>
                <mxCell id="7" value="+ constructor () ;&#10;+ nextNumber () ;&#10;+ hasNext () ;" style="text;strokeColor=none;fillColor=none;align=left;verticalAlign=top;spacingLeft=4;spacingRight=4;overflow=hidden;rotatable=0;points=[[0,0.5],[1,0.5]];portConstraint=eastwest;" vertex="1" parent="4">
                    <mxGeometry y="68" width="160" height="62" as="geometry"/>
                </mxCell>
                <mxCell id="8" value="" style="endArrow=block;dashed=1;endFill=0;endSize=12;html=1;entryX=0.5;entryY=1;entryDx=0;entryDy=0;exitX=0.5;exitY=0;exitDx=0;exitDy=0;" edge="1" parent="1" source="4" target="3">
                    <mxGeometry width="160" relative="1" as="geometry">
                        <mxPoint x="110" y="200" as="sourcePoint"/>
                        <mxPoint x="270" y="200" as="targetPoint"/>
                    </mxGeometry>
                </mxCell>
                <mxCell id="9" value="«interface»&lt;br&gt;&lt;b&gt;Numbers&lt;/b&gt;" style="html=1;" vertex="1" parent="1">
                    <mxGeometry x="400" y="70" width="110" height="50" as="geometry"/>
                </mxCell>
                <mxCell id="10" value="+ createIterator () ;" style="html=1;" vertex="1" parent="1">
                    <mxGeometry x="400" y="120" width="110" height="40" as="geometry"/>
                </mxCell>
                <mxCell id="11" value="NumbersCollection" style="swimlane;fontStyle=1;align=center;verticalAlign=top;childLayout=stackLayout;horizontal=1;startSize=26;horizontalStack=0;resizeParent=1;resizeParentMax=0;resizeLast=0;collapsible=1;marginBottom=0;" vertex="1" parent="1">
                    <mxGeometry x="390" y="230" width="160" height="100" as="geometry"/>
                </mxCell>
                <mxCell id="12" value="- collection ;" style="text;strokeColor=none;fillColor=none;align=left;verticalAlign=top;spacingLeft=4;spacingRight=4;overflow=hidden;rotatable=0;points=[[0,0.5],[1,0.5]];portConstraint=eastwest;" vertex="1" parent="11">
                    <mxGeometry y="26" width="160" height="26" as="geometry"/>
                </mxCell>
                <mxCell id="13" value="" style="line;strokeWidth=1;fillColor=none;align=left;verticalAlign=middle;spacingTop=-1;spacingLeft=3;spacingRight=3;rotatable=0;labelPosition=right;points=[];portConstraint=eastwest;" vertex="1" parent="11">
                    <mxGeometry y="52" width="160" height="8" as="geometry"/>
                </mxCell>
                <mxCell id="14" value="+ constructor () ;&#10;+ createIterator () ;" style="text;strokeColor=none;fillColor=none;align=left;verticalAlign=top;spacingLeft=4;spacingRight=4;overflow=hidden;rotatable=0;points=[[0,0.5],[1,0.5]];portConstraint=eastwest;" vertex="1" parent="11">
                    <mxGeometry y="60" width="160" height="40" as="geometry"/>
                </mxCell>
                <mxCell id="15" value="" style="endArrow=block;dashed=1;endFill=0;endSize=12;html=1;entryX=0.564;entryY=1.085;entryDx=0;entryDy=0;entryPerimeter=0;exitX=0.45;exitY=-0.026;exitDx=0;exitDy=0;exitPerimeter=0;" edge="1" parent="1" source="11" target="10">
                    <mxGeometry width="160" relative="1" as="geometry">
                        <mxPoint x="390" y="190" as="sourcePoint"/>
                        <mxPoint x="550" y="190" as="targetPoint"/>
                    </mxGeometry>
                </mxCell>
                <mxCell id="16" value="" style="endArrow=open;endFill=1;endSize=12;html=1;entryX=1;entryY=0.25;entryDx=0;entryDy=0;dashed=1;" edge="1" parent="1" source="10" target="3">
                    <mxGeometry width="160" relative="1" as="geometry">
                        <mxPoint x="410" y="190" as="sourcePoint"/>
                        <mxPoint x="250" y="190" as="targetPoint"/>
                    </mxGeometry>
                </mxCell>
                <mxCell id="18" value="" style="endArrow=open;endFill=1;endSize=12;html=1;" edge="1" parent="1">
                    <mxGeometry width="160" relative="1" as="geometry">
                        <mxPoint x="385" y="279.8" as="sourcePoint"/>
                        <mxPoint x="275" y="279.8" as="targetPoint"/>
                    </mxGeometry>
                </mxCell>
            </root>
        </mxGraphModel>
    </diagram>
</mxfile>